<?xml version="1.0" encoding="UTF-8" standalone="no"?>
<!-- Created with Inkscape (http://www.inkscape.org/) -->

<svg
   width="400"
   height="400"
   viewBox="0 0 400 400"
   version="1.1"
   id="svg1"
   inkscape:version="1.2.2 (b0a8486541, 2022-12-01)"
   sodipodi:docname="template_house_5.svg"
   xml:space="preserve"
   xmlns:inkscape="http://www.inkscape.org/namespaces/inkscape"
   xmlns:sodipodi="http://sodipodi.sourceforge.net/DTD/sodipodi-0.dtd"
   xmlns="http://www.w3.org/2000/svg"
   xmlns:svg="http://www.w3.org/2000/svg"><sodipodi:namedview
   id="namedview1"
   pagecolor="#ffffff"
   bordercolor="#000000"
   borderopacity="0.25"
   inkscape:showpageshadow="2"
   inkscape:pageopacity="0.0"
   inkscape:pagecheckerboard="0"
   inkscape:deskcolor="#d1d1d1"
   inkscape:document-units="px"
   showgrid="true"
   inkscape:zoom="2.8614199"
   inkscape:cx="166.8752"
   inkscape:cy="262.98133"
   inkscape:window-width="1920"
   inkscape:window-height="1041"
   inkscape:window-x="0"
   inkscape:window-y="0"
   inkscape:window-maximized="1"
   inkscape:current-layer="layer1"><inkscape:grid
     id="grid1"
     units="px"
     originx="0"
     originy="0"
     spacingx="1"
     spacingy="1"
     empcolor="#0099e5"
     empopacity="0.45882353"
     color="#e50000"
     opacity="0"
     empspacing="8"
     enabled="true"
     visible="true" /></sodipodi:namedview><defs
   id="defs1" /><g
   inkscape:label="Layer 1"
   inkscape:groupmode="layer"
   id="layer1"><path
     style="fill:#ff6600;fill-opacity:1;stroke:none;stroke-width:2.33365;stroke-linecap:round;stroke-linejoin:round;stroke-opacity:1"
     d="m 135.20467,231.68032 c -1.15706,1.57366 -10.48417,-3.03208 -12.11041,-5.76686 -0.5139,-0.8642 -4.3808,-14.9945 -2.65276,-15.57052 4.35981,2.19783 8.94601,-0.58499 13.0331,7.61225 l 2.30675,6.11287 c -0.35843,-1.93767 -1.11971,-3.12719 0.57668,-8.88096 0.14612,-4.48105 3.85447,-6.98309 6.57422,-10.03433 0.5292,3.99835 3.01647,7.99671 0.80736,11.99506 0.11409,3.3117 -1.28655,5.36112 -2.99876,7.1509 1.25935,-1.02169 1.80525,-1.63571 5.07484,-3.80612 3.7941,-2.62469 6.80557,-3.42325 9.68832,-3.92146 -0.92234,3.86685 -0.28342,9.07192 -3.11411,11.30304 -1.54103,1.17793 -3.54454,2.20171 -6.92023,2.76809 -2.61249,0.88547 -5.81276,1.37907 -10.265,1.03804 z"
     id="path2782"
     sodipodi:nodetypes="cscccccccccccc" /><path
     style="fill:#ff0000;fill-opacity:1;stroke:none;stroke-width:1.83867;stroke-linecap:round;stroke-linejoin:round;stroke-opacity:1"
     d="m 136.00628,236.9009 c -0.91165,1.23987 -8.26042,-2.38896 -9.54172,-4.54368 -0.4049,-0.6809 -3.45161,-11.81407 -2.0901,-12.26792 3.43507,1.73166 7.04851,-0.46091 10.2687,5.99765 l 1.81748,4.81629 c -0.28241,-1.52668 -0.88221,-2.46389 0.45436,-6.99725 0.11513,-3.53059 3.03691,-5.50194 5.17979,-7.90599 0.41695,3.15028 2.37666,6.30056 0.63611,9.45084 0.0899,2.60926 -1.01366,4.22399 -2.3627,5.63415 0.99223,-0.80499 1.42234,-1.28877 3.99843,-2.99882 2.98935,-2.06798 5.36207,-2.69716 7.63337,-3.0897 -0.7267,3.04667 -0.2233,7.14771 -2.45359,8.9056 -1.21416,0.92808 -2.79272,1.73471 -5.4524,2.18096 -2.05837,0.69766 -4.57984,1.08656 -8.08773,0.81787 z"
     id="path2782-3"
     sodipodi:nodetypes="cscccccccccccc" /><path
     style="fill:#ff6600;fill-opacity:1;stroke:none;stroke-width:5;stroke-linecap:round;stroke-linejoin:round;stroke-opacity:1"
     d="m 144,128 c -2.8874,-11.07801 0.42288,-21.69701 8,-32 3.93684,8.36269 11.27717,17.69724 8,24 -1.03592,-22.987384 13.85094,-24.091517 24,-32 0.34875,9.359751 7.85808,22.28621 0,32 16.47042,-9.09395 17.81998,-23.19816 33.66719,-16.71174 C 204.59029,106.33957 208.58299,138.20781 192,136 c 3.4883,1.84864 26.70963,-15.88385 35.7694,-10.44157 C 224.04865,139.06954 203.12968,154.12642 184,144 Z"
     id="path2677"
     sodipodi:nodetypes="cccccccccc" /><path
     style="fill:#ff0000;fill-opacity:1;stroke:none;stroke-width:4.05665;stroke-linecap:round;stroke-linejoin:round;stroke-opacity:1"
     d="m 148.03538,130.73284 c -2.34264,-8.98792 0.34309,-17.60344 6.49064,-25.96256 3.19407,6.7849 9.1495,14.3583 6.49064,19.47192 -0.84048,-18.65035 11.23768,-19.54617 19.47191,-25.96256 0.28296,7.59385 6.3755,18.08147 0,25.96256 13.36295,-7.3782 14.45789,-18.82136 27.3152,-13.55874 -10.60968,2.47562 -7.37028,28.33128 -20.82456,26.54002 2.83017,1.49985 21.67033,-12.88705 29.02079,-8.47156 -3.01876,10.96197 -19.99094,23.17806 -35.51143,14.9622 z"
     id="path2677-6"
     sodipodi:nodetypes="cccccccccc" /><path
     style="fill:#0172ad;fill-opacity:1;stroke:#0172ad;stroke-width:5;stroke-linecap:round;stroke-linejoin:round;stroke-opacity:1"
     d="m 10.332367,160 120.000003,-56 120,56 z"
     id="path2385" /><path
     id="rect1930"
     style="fill:#0172ad;fill-opacity:1;stroke:#0172ad;stroke-width:4.66472;stroke-linecap:round;stroke-linejoin:round;stroke-opacity:1"
     d="M 20.054688 162.33203 L 20.054688 253.66797 L 52.675781 253.66797 C 51.22634 252.22152 50.332031 250.21899 50.332031 248 L 50.332031 216 C 50.332031 211.568 53.900041 208 58.332031 208 L 74.332031 208 C 78.764023 208 82.332031 211.568 82.332031 216 L 82.332031 248 C 82.332031 250.21899 81.43773 252.22152 79.988281 253.66797 L 240 253.66797 L 240 162.33203 L 20.054688 162.33203 z M 128 200 L 144 200 C 148.432 200 152 203.568 152 208 L 152 224 C 152 228.432 148.432 232 144 232 L 128 232 C 123.568 232 120 228.432 120 224 L 120 208 C 120 203.568 123.568 200 128 200 z " /><path
     style="fill:#ff6600;fill-opacity:1;stroke:none;stroke-width:5;stroke-linecap:round;stroke-linejoin:round;stroke-opacity:1"
     d="m 195.71702,257.00215 c -16.34551,-13.00293 -23.22596,-22.65346 -21.99345,-41.51573 17.2059,0.71702 15.07363,9.57764 18.53381,19.52228 -7.26078,-4.82889 5.2636,-14.08879 16.55687,-22.73481 3.07089,14.81337 6.67898,12.9087 -0.49424,22.7348 -0.95452,-5.46799 17.45923,-10.82265 29.40698,-9.39046 1.22108,14.73458 -7.74321,23.97738 -28.91274,30.39545 z"
     id="path3510"
     sodipodi:nodetypes="cccccccc" /><path
     style="fill:#ff0000;fill-opacity:1;stroke:none;stroke-width:3.21142;stroke-linecap:round;stroke-linejoin:round;stroke-opacity:1"
     d="m 196.94741,256 c -10.49847,-8.35158 -14.91767,-14.54996 -14.12605,-26.6649 11.05108,0.46053 9.68156,6.15156 11.90398,12.53885 -4.66349,-3.10152 3.38072,-9.04901 10.63421,-14.60221 1.97239,9.51439 4.28981,8.29105 -0.31743,14.6022 -0.61308,-3.512 11.21378,-6.95122 18.88764,-6.03134 0.78427,9.46379 -4.97335,15.40029 -18.57021,19.52252 z"
     id="path3510-5"
     sodipodi:nodetypes="cccccccc" /><path
     style="fill:#ff6600;fill-opacity:1;stroke:none;stroke-width:5;stroke-linecap:round;stroke-linejoin:round;stroke-opacity:1"
     d="m 144.49549,171.66194 c -0.45496,-15.30164 0.32176,-29.98744 19.27516,-35.58491 8.0327,15.85776 3.71215,22.26891 0.98847,29.90121 2.68943,-15.08964 15.68685,-17.2943 28.66562,-19.52228 -2.19872,11.65399 -2.08045,26.33789 -12.35587,27.43004 10.1992,-13.47169 22.78576,-16.56873 40.52726,-7.41353 -11.90179,4.46222 -13.65463,23.24295 -33.60797,24.95886 0.22061,1.54431 -28.28556,-0.67708 -32.12527,0.49424 -4.56523,1.39265 -14.14181,-18.75032 -11.3674,-20.26363 z"
     id="path3514"
     sodipodi:nodetypes="cccccccsc" /><path
     style="fill:#ff0000;fill-opacity:1;stroke:none;stroke-width:3.96902;stroke-linecap:round;stroke-linejoin:round;stroke-opacity:1"
     d="m 144.39332,175.85555 c -0.36115,-12.1465 0.25542,-23.80415 15.3007,-28.24745 6.37639,12.58796 2.94672,17.67716 0.78466,23.73571 2.13488,-11.97822 12.45228,-13.72829 22.75488,-15.49687 -1.74535,9.25099 -1.65147,20.90713 -9.80814,21.77408 8.09617,-10.69388 18.08743,-13.15233 32.17071,-5.88489 -9.44769,3.54213 -10.8391,18.45035 -26.67815,19.81245 0.17512,1.22588 -22.45319,-0.53747 -25.50117,0.39233 -3.6239,1.10549 -11.22583,-14.88409 -9.02349,-16.08536 z"
     id="path3514-7"
     sodipodi:nodetypes="cccccccsc" /><path
     style="fill:#ff6600;fill-opacity:1;stroke:none;stroke-width:5;stroke-linecap:round;stroke-linejoin:round;stroke-opacity:1"
     d="m 52.388899,154.44841 c -5.264886,-14.43027 -8.751808,-28.50495 5.436584,-39.04456 8.094635,8.78394 11.659524,18.07118 7.907759,28.17139 3.599751,-14.33241 13.311876,-23.04145 33.360855,-22.24057 2.839463,10.31826 1.614973,20.9899 -10.62605,32.6195 8.582667,-10.22386 22.080223,-7.54615 35.832033,-4.201 -8.53674,12.58806 -17.68906,24.63748 -36.573385,28.17139 -9.555208,-1.09015 -19.110417,2.93417 -28.665625,-5.18946 z"
     id="path3837"
     sodipodi:nodetypes="ccccccccc" /><path
     style="fill:#ff0000;fill-opacity:1;stroke:none;stroke-width:2.98729;stroke-linecap:round;stroke-linejoin:round;stroke-opacity:1"
     d="m 58.745479,161.93671 c -3.14555,-8.62149 -5.228841,-17.03052 3.248133,-23.3275 4.836207,5.24804 6.96608,10.79678 4.724557,16.83123 2.150701,-8.56302 7.953292,-13.7663 19.931722,-13.28781 1.696461,6.16473 0.964879,12.54059 -6.348623,19.48879 5.127787,-6.10833 13.192013,-4.50851 21.408152,-2.50992 -5.100349,7.52084 -10.56848,14.71987 -21.851079,16.83123 -5.708839,-0.65132 -11.417678,1.75305 -17.126517,-3.10048 z"
     id="path3837-6"
     sodipodi:nodetypes="ccccccccc" /><circle
     style="fill:#0172ad;fill-opacity:1;stroke:none;stroke-width:6.05592;stroke-linecap:round;stroke-linejoin:round;stroke-opacity:1"
     id="path4868"
     cx="296"
     cy="307.89777"
     r="80" /><ellipse
     style="fill:#cccccc;fill-opacity:1;stroke:none;stroke-width:5;stroke-linecap:round;stroke-linejoin:round;stroke-opacity:1"
     id="path6524"
     cx="256"
     cy="288"
     rx="16"
     ry="24" /><ellipse
     style="fill:#cccccc;fill-opacity:1;stroke:none;stroke-width:5;stroke-linecap:round;stroke-linejoin:round;stroke-opacity:1"
     id="path6524-9"
     cx="296"
     cy="288"
     rx="16"
     ry="24" /><path
     style="fill:none;fill-opacity:1;stroke:#cccccc;stroke-width:5;stroke-linecap:round;stroke-linejoin:round;stroke-opacity:1"
     d="m 256,344 c 16,0 56,0 64,-8"
     id="path7333"
     sodipodi:nodetypes="cc" /><rect
     style="fill:#0172ad;fill-opacity:1;stroke:none;stroke-width:3.95284;stroke-linecap:round;stroke-linejoin:round;stroke-opacity:1"
     id="rect10055"
     width="40"
     height="16"
     x="236"
     y="264"
     rx="0"
     ry="0" /><rect
     style="fill:#0172ad;fill-opacity:1;stroke:none;stroke-width:3.95284;stroke-linecap:round;stroke-linejoin:round;stroke-opacity:1"
     id="rect10055-1"
     width="40"
     height="16"
     x="276"
     y="264"
     rx="0"
     ry="0" /><path
     style="fill:none;fill-opacity:1;stroke:#0172ad;stroke-width:30;stroke-linecap:round;stroke-linejoin:round;stroke-dasharray:none;stroke-opacity:1"
     d="m 312,376 c 13.23845,19.33381 11.07793,37.36804 16,56"
     id="path10207"
     sodipodi:nodetypes="cc" /></g><inkscape:templateinfo><inkscape:name>default</inkscape:name><inkscape:date>2024-11-24</inkscape:date></inkscape:templateinfo>
</svg>
