<?xml version="1.0" encoding="UTF-8" standalone="no"?>
<!-- Created with Inkscape (http://www.inkscape.org/) -->

<svg
   width="400"
   height="400"
   viewBox="0 0 400 400"
   version="1.1"
   id="svg1"
   inkscape:version="1.2.2 (b0a8486541, 2022-12-01)"
   sodipodi:docname="template_house_1.svg"
   xml:space="preserve"
   xmlns:inkscape="http://www.inkscape.org/namespaces/inkscape"
   xmlns:sodipodi="http://sodipodi.sourceforge.net/DTD/sodipodi-0.dtd"
   xmlns="http://www.w3.org/2000/svg"
   xmlns:svg="http://www.w3.org/2000/svg"><sodipodi:namedview
   id="namedview1"
   pagecolor="#ffffff"
   bordercolor="#000000"
   borderopacity="0.25"
   inkscape:showpageshadow="2"
   inkscape:pageopacity="0.0"
   inkscape:pagecheckerboard="0"
   inkscape:deskcolor="#d1d1d1"
   inkscape:document-units="px"
   showgrid="true"
   inkscape:zoom="1.0116647"
   inkscape:cx="449.25952"
   inkscape:cy="294.06976"
   inkscape:window-width="1920"
   inkscape:window-height="1041"
   inkscape:window-x="0"
   inkscape:window-y="0"
   inkscape:window-maximized="1"
   inkscape:current-layer="layer1"><inkscape:grid
     id="grid1"
     units="px"
     originx="0"
     originy="0"
     spacingx="1"
     spacingy="1"
     empcolor="#0099e5"
     empopacity="0.45882353"
     color="#e50000"
     opacity="0"
     empspacing="8"
     enabled="true"
     visible="true" /></sodipodi:namedview><defs
   id="defs1" /><g
   inkscape:label="Layer 1"
   inkscape:groupmode="layer"
   id="layer1"><path
     id="rect1260"
     style="fill:#0172ad;stroke:none;stroke-width:20;stroke-linecap:round;stroke-linejoin:round"
     d="M 88 24 C 79.136189 24 72 31.136189 72 40 L 72 360 C 72 368.86379 79.136189 376 88 376 L 186 376 C 184.892 376 184 375.108 184 374 L 184 314 C 184 312.892 184.892 312 186 312 L 222 312 C 223.108 312 224 312.892 224 314 L 224 374 C 224 375.108 223.108 376 222 376 L 312 376 C 320.86379 376 328 368.86379 328 360 L 328 40 C 328 31.136189 320.86379 24 312 24 L 88 24 z M 107.42773 40 L 124.57227 40 C 130.90369 40 136 45.096312 136 51.427734 L 136 68.572266 C 136 74.903688 130.90369 80 124.57227 80 L 107.42773 80 C 101.09631 80 96 74.903688 96 68.572266 L 96 51.427734 C 96 45.096312 101.09631 40 107.42773 40 z M 163.42773 40 L 180.57227 40 C 186.90368 40 192 45.096319 192 51.427734 L 192 68.572266 C 192 74.903681 186.90368 80 180.57227 80 L 163.42773 80 C 157.09632 80 152 74.903681 152 68.572266 L 152 51.427734 C 152 45.096319 157.09632 40 163.42773 40 z M 219.42773 40 L 236.57227 40 C 242.90367 40 248 45.096326 248 51.427734 L 248 68.572266 C 248 74.903674 242.90367 80 236.57227 80 L 219.42773 80 C 213.09633 80 208 74.903674 208 68.572266 L 208 51.427734 C 208 45.096326 213.09633 40 219.42773 40 z M 275.42773 40 L 292.57227 40 C 298.90366 40 304 45.096333 304 51.427734 L 304 68.572266 C 304 74.903667 298.90366 80 292.57227 80 L 275.42773 80 C 269.09634 80 264 74.903667 264 68.572266 L 264 51.427734 C 264 45.096333 269.09634 40 275.42773 40 z M 107.42773 96 L 124.57227 96 C 130.90365 96 136 101.09635 136 107.42773 L 136 124.57227 C 136 130.90365 130.90365 136 124.57227 136 L 107.42773 136 C 101.09635 136 96 130.90365 96 124.57227 L 96 107.42773 C 96 101.09635 101.09635 96 107.42773 96 z M 163.42773 96 L 180.57227 96 C 186.90362 96 192 101.09638 192 107.42773 L 192 124.57227 C 192 130.90362 186.90362 136 180.57227 136 L 163.42773 136 C 157.09638 136 152 130.90362 152 124.57227 L 152 107.42773 C 152 101.09638 157.09638 96 163.42773 96 z M 219.42773 96 L 236.57227 96 C 242.90363 96 248 101.09637 248 107.42773 L 248 124.57227 C 248 130.90363 242.90363 136 236.57227 136 L 219.42773 136 C 213.09637 136 208 130.90363 208 124.57227 L 208 107.42773 C 208 101.09637 213.09637 96 219.42773 96 z M 275.42773 96 L 292.57227 96 C 298.90364 96 304 101.09636 304 107.42773 L 304 124.57227 C 304 130.90364 298.90364 136 292.57227 136 L 275.42773 136 C 269.09636 136 264 130.90364 264 124.57227 L 264 107.42773 C 264 101.09636 269.09636 96 275.42773 96 z M 107.42773 152 L 124.57227 152 C 130.90361 152 136 157.09639 136 163.42773 L 136 180.57227 C 136 186.90361 130.90361 192 124.57227 192 L 107.42773 192 C 101.09639 192 96 186.90361 96 180.57227 L 96 163.42773 C 96 157.09639 101.09639 152 107.42773 152 z M 163.42773 152 L 180.57227 152 C 186.9036 152 192 157.0964 192 163.42773 L 192 180.57227 C 192 186.9036 186.9036 192 180.57227 192 L 163.42773 192 C 157.0964 192 152 186.9036 152 180.57227 L 152 163.42773 C 152 157.0964 157.0964 152 163.42773 152 z M 219.42773 152 L 236.57227 152 C 242.90359 152 248 157.09641 248 163.42773 L 248 180.57227 C 248 186.90359 242.90359 192 236.57227 192 L 219.42773 192 C 213.09641 192 208 186.90359 208 180.57227 L 208 163.42773 C 208 157.09641 213.09641 152 219.42773 152 z M 275.42773 152 L 292.57227 152 C 298.90358 152 304 157.09642 304 163.42773 L 304 180.57227 C 304 186.90358 298.90358 192 292.57227 192 L 275.42773 192 C 269.09642 192 264 186.90358 264 180.57227 L 264 163.42773 C 264 157.09642 269.09642 152 275.42773 152 z M 107.42773 208 L 124.57227 208 C 130.90357 208 136 213.09643 136 219.42773 L 136 236.57227 C 136 242.90357 130.90357 248 124.57227 248 L 107.42773 248 C 101.09643 248 96 242.90357 96 236.57227 L 96 219.42773 C 96 213.09643 101.09643 208 107.42773 208 z M 163.42773 208 L 180.57227 208 C 186.90353 208 192 213.09647 192 219.42773 L 192 236.57227 C 192 242.90353 186.90353 248 180.57227 248 L 163.42773 248 C 157.09647 248 152 242.90353 152 236.57227 L 152 219.42773 C 152 213.09647 157.09647 208 163.42773 208 z M 219.42773 208 L 236.57227 208 C 242.90352 208 248 213.09648 248 219.42773 L 248 236.57227 C 248 242.90352 242.90352 248 236.57227 248 L 219.42773 248 C 213.09648 248 208 242.90352 208 236.57227 L 208 219.42773 C 208 213.09648 213.09648 208 219.42773 208 z M 275.42773 208 L 292.57227 208 C 298.90351 208 304 213.09649 304 219.42773 L 304 236.57227 C 304 242.90351 298.90351 248 292.57227 248 L 275.42773 248 C 269.09649 248 264 242.90351 264 236.57227 L 264 219.42773 C 264 213.09649 269.09649 208 275.42773 208 z M 107.42773 264 L 124.57227 264 C 130.90355 264 136 269.09645 136 275.42773 L 136 292.57227 C 136 298.90355 130.90355 304 124.57227 304 L 107.42773 304 C 101.09645 304 96 298.90355 96 292.57227 L 96 275.42773 C 96 269.09645 101.09645 264 107.42773 264 z M 163.42773 264 L 180.57227 264 C 186.90354 264 192 269.09646 192 275.42773 L 192 292.57227 C 192 298.90354 186.90354 304 180.57227 304 L 163.42773 304 C 157.09646 304 152 298.90354 152 292.57227 L 152 275.42773 C 152 269.09646 157.09646 264 163.42773 264 z M 219.42773 264 L 236.57227 264 C 242.9035 264 248 269.0965 248 275.42773 L 248 292.57227 C 248 298.9035 242.9035 304 236.57227 304 L 219.42773 304 C 213.0965 304 208 298.9035 208 292.57227 L 208 275.42773 C 208 269.0965 213.0965 264 219.42773 264 z M 275.42773 264 L 292.57227 264 C 298.90349 264 304 269.09651 304 275.42773 L 304 292.57227 C 304 298.90349 298.90349 304 292.57227 304 L 275.42773 304 C 269.09651 304 264 298.90349 264 292.57227 L 264 275.42773 C 264 269.09651 269.09651 264 275.42773 264 z " /></g><inkscape:templateinfo><inkscape:name>default</inkscape:name><inkscape:date>2024-11-24</inkscape:date></inkscape:templateinfo>
</svg>
