<?xml version="1.0" encoding="UTF-8" standalone="no"?>
<!-- Created with Inkscape (http://www.inkscape.org/) -->

<svg
   width="400"
   height="400"
   viewBox="0 0 400 400"
   version="1.1"
   id="svg1"
   inkscape:version="1.2.2 (b0a8486541, 2022-12-01)"
   sodipodi:docname="template_house_2.svg"
   xml:space="preserve"
   xmlns:inkscape="http://www.inkscape.org/namespaces/inkscape"
   xmlns:sodipodi="http://sodipodi.sourceforge.net/DTD/sodipodi-0.dtd"
   xmlns="http://www.w3.org/2000/svg"
   xmlns:svg="http://www.w3.org/2000/svg"><sodipodi:namedview
   id="namedview1"
   pagecolor="#ffffff"
   bordercolor="#000000"
   borderopacity="0.25"
   inkscape:showpageshadow="2"
   inkscape:pageopacity="0.0"
   inkscape:pagecheckerboard="0"
   inkscape:deskcolor="#d1d1d1"
   inkscape:document-units="px"
   showgrid="true"
   inkscape:zoom="4.0466586"
   inkscape:cx="203.74835"
   inkscape:cy="310.25597"
   inkscape:window-width="1920"
   inkscape:window-height="1041"
   inkscape:window-x="0"
   inkscape:window-y="0"
   inkscape:window-maximized="1"
   inkscape:current-layer="layer1"><inkscape:grid
     id="grid1"
     units="px"
     originx="0"
     originy="0"
     spacingx="1"
     spacingy="1"
     empcolor="#0099e5"
     empopacity="0.45882353"
     color="#e50000"
     opacity="0"
     empspacing="8"
     enabled="true"
     visible="true" /></sodipodi:namedview><defs
   id="defs1" /><g
   inkscape:label="Layer 1"
   inkscape:groupmode="layer"
   id="layer1"><path
     id="rect1261"
     style="fill:#0172ad;fill-opacity:1;stroke-width:20;stroke-linecap:round;stroke-linejoin:round"
     d="M 83.427734 24 C 77.096347 24 72 29.096347 72 35.427734 L 72 364.57227 C 72 370.90364 77.096347 376 83.427734 376 L 316.57227 376 C 322.90364 376 328 370.90364 328 364.57227 L 328 35.427734 C 328 29.096347 322.90364 24 316.57227 24 L 83.427734 24 z M 88 40 L 312 40 C 316.432 40 320 43.568004 320 48 L 320 64 C 320 68.431996 316.432 72 312 72 L 88 72 C 83.568004 72 80 68.431996 80 64 L 80 48 C 80 43.568004 83.568004 40 88 40 z M 88 104 L 312 104 C 316.432 104 320 107.568 320 112 L 320 128 C 320 132.432 316.432 136 312 136 L 88 136 C 83.568008 136 80 132.432 80 128 L 80 112 C 80 107.568 83.568008 104 88 104 z M 88 168 L 312 168 C 316.432 168 320 171.568 320 176 L 320 192 C 320 196.432 316.432 200 312 200 L 88 200 C 83.568012 200 80 196.432 80 192 L 80 176 C 80 171.568 83.568012 168 88 168 z M 88 232 L 312 232 C 316.432 232 320 235.568 320 240 L 320 256 C 320 260.432 316.432 264 312 264 L 88 264 C 83.568016 264 80 260.432 80 256 L 80 240 C 80 235.568 83.568016 232 88 232 z M 120 288 L 144 288 C 148.432 288 152 291.568 152 296 L 152 360 C 152 364.432 148.432 368 144 368 L 120 368 C 115.568 368 112 364.432 112 360 L 112 296 C 112 291.568 115.568 288 120 288 z M 188.33008 292.89258 L 315.66992 292.89258 C 318.06901 292.89258 320 294.82357 320 297.22266 L 320 368.5625 C 320 370.96159 318.06901 372.89258 315.66992 372.89258 L 188.33008 372.89258 C 185.93099 372.89258 184 370.96159 184 368.5625 L 184 297.22266 C 184 294.82357 185.93099 292.89258 188.33008 292.89258 z " /><path
     style="fill:#014a70;fill-opacity:1;stroke-width:20;stroke-linecap:round;stroke-linejoin:round"
     d="m 112,360 -16,24 h 72 l -16,-24 z"
     id="path1578" /><rect
     style="fill:#0172ad;fill-opacity:1;stroke-width:17.8885;stroke-linecap:round;stroke-linejoin:round"
     id="rect1974"
     width="16"
     height="32"
     x="120"
     y="40"
     rx="0"
     ry="0" /><rect
     style="fill:#0172ad;fill-opacity:1;stroke-width:17.8885;stroke-linecap:round;stroke-linejoin:round"
     id="rect1974-5"
     width="16"
     height="32"
     x="120"
     y="104"
     rx="0"
     ry="0" /><rect
     style="fill:#0172ad;fill-opacity:1;stroke-width:17.8885;stroke-linecap:round;stroke-linejoin:round"
     id="rect1974-6"
     width="16"
     height="32"
     x="120"
     y="168"
     rx="0"
     ry="0" /><rect
     style="fill:#0172ad;fill-opacity:1;stroke-width:17.8885;stroke-linecap:round;stroke-linejoin:round"
     id="rect1974-2"
     width="16"
     height="32"
     x="120"
     y="232"
     rx="0"
     ry="0" /><rect
     style="fill:#0172ad;fill-opacity:1;stroke-width:17.8885;stroke-linecap:round;stroke-linejoin:round"
     id="rect1974-9"
     width="16"
     height="32"
     x="264"
     y="168"
     rx="0"
     ry="0" /><rect
     style="fill:#0172ad;fill-opacity:1;stroke-width:17.8885;stroke-linecap:round;stroke-linejoin:round"
     id="rect1974-1"
     width="16"
     height="32"
     x="264"
     y="232"
     rx="0"
     ry="0" /><rect
     style="fill:#0172ad;fill-opacity:1;stroke-width:17.8885;stroke-linecap:round;stroke-linejoin:round"
     id="rect1974-27"
     width="16"
     height="32"
     x="264"
     y="104"
     rx="0"
     ry="0" /><rect
     style="fill:#0172ad;fill-opacity:1;stroke-width:17.8885;stroke-linecap:round;stroke-linejoin:round"
     id="rect1974-0"
     width="16"
     height="32"
     x="264"
     y="40"
     rx="0"
     ry="0" /><rect
     style="fill:#0172ad;fill-opacity:1;stroke-width:17.8885;stroke-linecap:round;stroke-linejoin:round"
     id="rect1974-93"
     width="16"
     height="32"
     x="192"
     y="232"
     rx="0"
     ry="0" /><rect
     style="fill:#0172ad;fill-opacity:1;stroke-width:17.8885;stroke-linecap:round;stroke-linejoin:round"
     id="rect1974-60"
     width="16"
     height="32"
     x="192"
     y="168"
     rx="0"
     ry="0" /><rect
     style="fill:#0172ad;fill-opacity:1;stroke-width:17.8885;stroke-linecap:round;stroke-linejoin:round"
     id="rect1974-62"
     width="16"
     height="32"
     x="192"
     y="104"
     rx="0"
     ry="0" /><rect
     style="fill:#0172ad;fill-opacity:1;stroke-width:17.8885;stroke-linecap:round;stroke-linejoin:round"
     id="rect1974-61"
     width="16"
     height="32"
     x="192"
     y="40"
     rx="0"
     ry="0" /><path
     id="rect2223"
     style="fill:#0172ad;fill-opacity:1;stroke-width:19.9513;stroke-linecap:round;stroke-linejoin:round"
     d="m 224,339.10204 c -2.53257,0 -4.57143,2.91266 -4.57143,6.53062 0,-0.7236 0.50972,-1.30613 1.14286,-1.30613 h 6.85714 c 0.63314,0 1.14286,0.58253 1.14286,1.30613 v 2.61224 c 0,0.72359 -0.50972,1.30612 -1.14286,1.30612 h -6.85714 c -0.63314,0 -1.14286,-0.58253 -1.14286,-1.30612 v 5.22449 c 0,3.61796 2.03886,6.53061 4.57143,6.53061 h 4.57143 a 4.5714286,5.2244898 0 0 1 4.57143,-5.22449 4.5714286,5.2244898 0 0 1 4.57143,5.22449 h 36.57142 a 4.5714286,5.2244898 0 0 1 4.57143,-5.22449 A 4.5714286,5.2244898 0 0 1 283.42857,360 H 288 c 2.53257,0 4.57143,-2.91265 4.57143,-6.53061 v -4.36224 c -0.20914,0.27166 -0.5142,0.44387 -0.85714,0.44387 h -7.14286 c -0.63314,0 -1.14286,-0.58253 -1.14286,-1.30612 v -2.61224 c 0,-0.7236 0.50972,-1.30613 1.14286,-1.30613 h 7.14286 c 0.31542,0 0.5994,0.14553 0.80579,0.38011 -0.31403,-3.17458 -2.2085,-5.6046 -4.52008,-5.6046 z" /><circle
     style="fill:none;fill-opacity:1;stroke:#0172ad;stroke-width:3.13469;stroke-linecap:round;stroke-linejoin:round;stroke-dasharray:none;stroke-opacity:1"
     id="path2378-3-6"
     cx="270.36734"
     cy="337.79593"
     r="5.2244897" /><path
     id="path2051"
     style="fill:#0172ad;fill-opacity:1;stroke-width:26.1224;stroke-linecap:round;stroke-linejoin:round"
     d="m 235.10204,318.20408 -10.44898,20.89796 h 62.69388 l -10.44898,-20.89796 z m 2.61225,1.30613 h 36.57142 l 9.14286,18.28571 h -54.85714 z" /><rect
     style="fill:#0172ad;fill-opacity:1;stroke:none;stroke-width:5.05859;stroke-linecap:round;stroke-linejoin:round;stroke-dasharray:none;stroke-opacity:1"
     id="rect2717"
     width="6.5306125"
     height="11.755102"
     x="229.87755"
     y="355.42856"
     rx="3.2653062"
     ry="3.2653062" /><rect
     style="fill:#0172ad;fill-opacity:1;stroke:none;stroke-width:5.05859;stroke-linecap:round;stroke-linejoin:round;stroke-dasharray:none;stroke-opacity:1"
     id="rect2717-5"
     width="6.5306125"
     height="11.755102"
     x="275.59183"
     y="355.42856"
     rx="3.2653062"
     ry="3.2653062" /></g><inkscape:templateinfo><inkscape:name>default</inkscape:name><inkscape:date>2024-11-24</inkscape:date></inkscape:templateinfo>
</svg>
